# File created by Blade
# Date/Time:  Thu Jan 22 15:49:58 2015
# Frame Rate: 120.000 fps
#------------------------------------------------------
:FULLY-SPECIFIED
:DEGREES
2124
root 3.058107 37.132721 4.763001 -1.839924 -0.677668 3.029002
RightUpLeg 10.333926 -7.781757 -5.644712
RightLeg -5.643094 -0.000000 0.000000
RightFoot -11.671653 -13.844010 16.614683
RightToeBase 14.376799 -0.000000 -0.000000
LeftUpLeg 7.848072 4.443521 1.390493
LeftLeg -2.486860 -0.000000 0.000000
LeftFoot -6.236603 7.007175 -17.248279
LeftToeBase 8.721789 -0.000000 -0.000000
Spine 6.744071 -6.502452 -2.525175
RightShoulder -7.444602 -11.890795 -28.116991
RightArm 4.571505 15.297032 22.224087
RightForeArm 17.102372 -0.000000 15.042396
RightHand 2.348478 -0.000000 4.719147
RightHandThumb1 -24.326973 -0.000000 -32.862282
LeftShoulder -26.242172 31.820353 13.973179
LeftArm 32.855299 -42.667049 -40.336977
LeftForeArm 31.338803 -0.000000 3.891787
LeftHand -14.574449 -0.000000 -6.733598
LeftHandThumb1 -26.253704 0.000000 33.147579
Head 6.021249 7.279505 2.050404
2125
root 3.056548 37.132903 4.765669 -1.835456 -0.779553 3.015647
RightUpLeg 10.310834 -7.770356 -5.634481
RightLeg -5.637653 -0.000000 0.000000
RightFoot -11.668791 -13.777106 16.653014
RightToeBase 14.447871 -0.000000 -0.000000
LeftUpLeg 7.867312 4.470278 1.401046
LeftLeg -2.500229 -0.000000 0.000000
LeftFoot -6.256688 7.076139 -17.249664
LeftToeBase 8.701216 -0.000000 -0.000000
Spine 6.715037 -6.466270 -2.522066
RightShoulder -7.419301 -11.861370 -28.063113
RightArm 4.623095 15.376624 22.313912
RightForeArm 17.221865 -0.000000 14.995490
RightHand 2.469669 -0.000000 4.853536
RightHandThumb1 -24.326973 -0.000000 -32.862282
LeftShoulder -26.265213 31.798321 13.916476
LeftArm 32.803119 -42.660875 -40.282592
LeftForeArm 31.364304 -0.000000 3.889968
LeftHand -14.511196 -0.000000 -6.847859
LeftHandThumb1 -26.253704 0.000000 33.147579
Head 6.134798 7.273450 2.018086
2126
root 3.055889 37.133001 4.769297 -1.836476 -0.877499 3.008355
RightUpLeg 10.296229 -7.767680 -5.631404
RightLeg -5.637719 -0.000000 0.000000
RightFoot -11.646207 -13.713590 16.638040
RightToeBase 14.456146 -0.000000 -0.000000
LeftUpLeg 7.888058 4.519578 1.403730
LeftLeg -2.500678 -0.000000 0.000000
LeftFoot -6.287607 7.141854 -17.274233
LeftToeBase 8.662296 -0.000000 -0.000000
Spine 6.685235 -6.417093 -2.522887
RightShoulder -7.404853 -11.838614 -28.007773
RightArm 4.674646 15.454330 22.399812
RightForeArm 17.214826 -0.000000 14.965290
RightHand 2.454396 -0.000000 4.896888
RightHandThumb1 -24.326973 -0.000000 -32.862282
LeftShoulder -26.296781 31.806432 13.856543
LeftArm 32.826160 -42.648796 -40.269374
LeftForeArm 31.346024 -0.000000 3.838360
LeftHand -14.521580 -0.000000 -6.772211
LeftHandThumb1 -26.253704 0.000000 33.147579
Head 6.257563 7.241785 1.959123
2127
root 3.053123 37.132908 4.772403 -1.837056 -0.985759 2.980852
RightUpLeg 10.280802 -7.725866 -5.613252
RightLeg -5.628694 -0.000000 0.000000
RightFoot -11.600554 -13.605327 16.611358
RightToeBase 14.408585 -0.000000 -0.000000
LeftUpLeg 7.911494 4.577124 1.438614
LeftLeg -2.508899 -0.000000 0.000000
LeftFoot -6.302129 7.155855 -17.258414
LeftToeBase 8.663863 -0.000000 -0.000000
Spine 6.656448 -6.356624 -2.498841
RightShoulder -7.397686 -11.812313 -27.952940
RightArm 4.724002 15.560128 22.474415
RightForeArm 16.948380 -0.000000 14.932710
RightHand 2.406379 0.000000 4.935705
RightHandThumb1 -24.326973 -0.000000 -32.862282
LeftShoulder -26.317075 31.788585 13.820579
LeftArm 32.803660 -42.613720 -40.239965
LeftForeArm 31.340401 -0.000000 3.810805
LeftHand -14.458253 0.000000 -6.817706
LeftHandThumb1 -26.253704 0.000000 33.147579
Head 6.382336 7.247115 1.902983
2128
root 3.050587 37.132154 4.775759 -1.832549 -1.094092 2.959882
RightUpLeg 10.251839 -7.678290 -5.598646
RightLeg -5.599726 -0.000000 0.000000
RightFoot -11.553811 -13.494548 16.539921
RightToeBase 14.341765 -0.000000 -0.000000
LeftUpLeg 7.930404 4.619522 1.460375
LeftLeg -2.514875 -0.000000 0.000000
LeftFoot -6.340266 7.208206 -17.266737
LeftToeBase 8.639255 -0.000000 -0.000000
Spine 6.617049 -6.292841 -2.477720
RightShoulder -7.387559 -11.766009 -27.922117
RightArm 4.762144 15.606207 22.577459
RightForeArm 16.947501 -0.000000 14.930673
RightHand 2.300413 -0.000000 4.874600
RightHandThumb1 -24.326973 -0.000000 -32.862282
LeftShoulder -26.341786 31.762687 13.779346
LeftArm 32.789449 -42.598938 -40.221951
LeftForeArm 31.422174 -0.000000 3.809786
LeftHand -14.438743 -0.000000 -6.979750
LeftHandThumb1 -26.253704 0.000000 33.147579
Head 6.501105 7.260422 1.841388
2129
root 3.049935 37.131525 4.779181 -1.834079 -1.184474 2.948739
RightUpLeg 10.242827 -7.673949 -5.593696
RightLeg -5.604796 -0.000000 0.000000
RightFoot -11.554824 -13.426549 16.588797
RightToeBase 14.411116 -0.000000 -0.000000
LeftUpLeg 7.945684 4.658776 1.468427
LeftLeg -2.507006 -0.000000 0.000000
LeftFoot -6.376773 7.263423 -17.254076
LeftToeBase 8.648309 -0.000000 -0.000000
Spine 6.583154 -6.249317 -2.467651
RightShoulder -7.368296 -11.688133 -27.883501
RightArm 4.778110 15.667716 22.638064
RightForeArm 16.746361 -0.000000 14.899979
RightHand 2.289576 0.000000 4.889969
RightHandThumb1 -24.326973 -0.000000 -32.862282
LeftShoulder -26.371351 31.745593 13.725220
LeftArm 32.805906 -42.619244 -40.216413
LeftForeArm 31.496111 -0.000000 3.778958
LeftHand -14.406258 -0.000000 -7.026506
LeftHandThumb1 -26.253704 0.000000 33.147579
Head 6.628667 7.287426 1.781929
2130
root 3.051150 37.131001 4.782092 -1.830876 -1.291717 2.948771
RightUpLeg 10.223033 -7.712256 -5.596136
RightLeg -5.620840 -0.000000 0.000000
RightFoot -11.513672 -13.337700 16.549605
RightToeBase 14.403446 -0.000000 -0.000000
LeftUpLeg 7.960649 4.691226 1.460972
LeftLeg -2.504998 -0.000000 0.000000
LeftFoot -6.423128 7.330097 -17.274098
LeftToeBase 8.681281 -0.000000 -0.000000
Spine 6.538079 -6.179037 -2.461440
RightShoulder -7.352786 -11.625915 -27.851668
RightArm 4.795902 15.711035 22.703693
RightForeArm 16.653906 -0.000000 14.877504
RightHand 2.258769 -0.000000 4.857440
RightHandThumb1 -24.326973 -0.000000 -32.862282
LeftShoulder -26.348905 31.701105 13.689408
LeftArm 32.692905 -42.545602 -40.064989
LeftForeArm 31.522599 -0.000000 3.735652
LeftHand -14.391114 0.000000 -7.038036
LeftHandThumb1 -26.253704 0.000000 33.147579
Head 6.765781 7.316477 1.703034
2131
root 3.049865 37.129865 4.788203 -1.846880 -1.374732 2.941802
RightUpLeg 10.234425 -7.683526 -5.600523
RightLeg -5.609989 -0.000000 0.000000
RightFoot -11.526760 -13.274669 16.546584
RightToeBase 14.497441 -0.000000 -0.000000
LeftUpLeg 7.993026 4.724882 1.469125
LeftLeg -2.495914 -0.000000 0.000000
LeftFoot -6.451307 7.372101 -17.257758
LeftToeBase 8.636476 -0.000000 -0.000000
Spine 6.510606 -6.156743 -2.459904
RightShoulder -7.323267 -11.588946 -27.823551
RightArm 4.836824 15.693836 22.771020
RightForeArm 16.749217 -0.000000 14.851975
RightHand 2.263621 -0.000000 4.884988
RightHandThumb1 -24.326973 -0.000000 -32.862282
LeftShoulder -26.363991 31.690223 13.643314
LeftArm 32.605921 -42.515467 -39.972054
LeftForeArm 31.651397 -0.000000 3.744856
LeftHand -14.412248 -0.000000 -6.992808
LeftHandThumb1 -26.253704 0.000000 33.147579
Head 6.902894 7.360660 1.620026
